<svg width="16" height="16" viewBox="0 0 16 16" fill="none" xmlns="http://www.w3.org/2000/svg">
<path opacity="0.15" fill-rule="evenodd" clip-rule="evenodd" d="M8.00008 14C10.9456 12.6667 13.3334 10.2789 13.3334 7.33333C13.3334 4.38781 10.9456 2 8.00008 2C5.05456 2 2.66675 4.38781 2.66675 7.33333C2.66675 10.2789 5.05456 12.6667 8.00008 14ZM8.00008 9.33333C9.10465 9.33333 10.0001 8.4379 10.0001 7.33333C10.0001 6.22876 9.10465 5.33333 8.00008 5.33333C6.89551 5.33333 6.00008 6.22876 6.00008 7.33333C6.00008 8.4379 6.89551 9.33333 8.00008 9.33333Z" fill="url(#paint0_linear_1351_1047)"/>
<path d="M13.3334 7.33333C13.3334 10.2789 10.9456 12.6667 8.00008 14C5.05456 12.6667 2.66675 10.2789 2.66675 7.33333C2.66675 4.38781 5.05456 2 8.00008 2C10.9456 2 13.3334 4.38781 13.3334 7.33333Z" fill="url(#paint1_linear_1351_1047)"/>
<path d="M10.0001 7.33333C10.0001 8.4379 9.10465 9.33333 8.00008 9.33333C6.89551 9.33333 6.00008 8.4379 6.00008 7.33333C6.00008 6.22876 6.89551 5.33333 8.00008 5.33333C9.10465 5.33333 10.0001 6.22876 10.0001 7.33333Z" fill="url(#paint2_linear_1351_1047)"/>
<circle cx="8" cy="8" r="2" fill="white"/>
<defs>
<linearGradient id="paint0_linear_1351_1047" x1="13.1962" y1="10.6538" x2="2.27202" y2="10.523" gradientUnits="userSpaceOnUse">
<stop stop-color="#176FF2"/>
<stop offset="1" stop-color="#196EEE"/>
</linearGradient>
<linearGradient id="paint1_linear_1351_1047" x1="13.1962" y1="10.6538" x2="2.27202" y2="10.523" gradientUnits="userSpaceOnUse">
<stop stop-color="#176FF2"/>
<stop offset="1" stop-color="#196EEE"/>
</linearGradient>
<linearGradient id="paint2_linear_1351_1047" x1="13.1962" y1="10.6538" x2="2.27202" y2="10.523" gradientUnits="userSpaceOnUse">
<stop stop-color="#176FF2"/>
<stop offset="1" stop-color="#196EEE"/>
</linearGradient>
</defs>
</svg>
